<?xml version="1.0" encoding="UTF-8" standalone="no"?>
<svg
   xmlns:dc="http://purl.org/dc/elements/1.1/"
   xmlns:cc="http://creativecommons.org/ns#"
   xmlns:rdf="http://www.w3.org/1999/02/22-rdf-syntax-ns#"
   xmlns:svg="http://www.w3.org/2000/svg"
   xmlns="http://www.w3.org/2000/svg"
   xmlns:sodipodi="http://sodipodi.sourceforge.net/DTD/sodipodi-0.dtd"
   xmlns:inkscape="http://www.inkscape.org/namespaces/inkscape"
   version="1.1"
   id="svg413"
   width="1000"
   height="1000"
   viewBox="0 0 1000 1000"
   sodipodi:docname="obsrvr_logo_white_2.svg"
   inkscape:version="1.0.2 (e86c870879, 2021-01-15)">
  <metadata
     id="metadata419">
    <rdf:RDF>
      <cc:Work
         rdf:about="">
        <dc:format>image/svg+xml</dc:format>
        <dc:type
           rdf:resource="http://purl.org/dc/dcmitype/StillImage" />
        <dc:title></dc:title>
      </cc:Work>
    </rdf:RDF>
  </metadata>
  <defs
     id="defs417" />
  <sodipodi:namedview
     pagecolor="#ffffff"
     bordercolor="#666666"
     borderopacity="1"
     objecttolerance="10"
     gridtolerance="10"
     guidetolerance="10"
     inkscape:pageopacity="0"
     inkscape:pageshadow="2"
     inkscape:window-width="1200"
     inkscape:window-height="720"
     id="namedview415"
     showgrid="false"
     inkscape:zoom="0.455"
     inkscape:cx="500"
     inkscape:cy="500"
     inkscape:window-x="0"
     inkscape:window-y="0"
     inkscape:window-maximized="1"
     inkscape:current-layer="g421"
     inkscape:document-rotation="0" />
  <g
     inkscape:groupmode="layer"
     inkscape:label="Image"
     id="g421">
    <path
       style="fill:#ffffff;stroke-width:2"
       d="m 86.245531,999.80693 c -36.05956,-7.5692 -64.20815,-32.6584 -76.2483701,-67.96112 -3.527331,-10.34236 -3.751625,-19.31024 -3.751625,-150 0,-130.68976 0.224294,-139.65764 3.751625,-150 10.4213001,-30.5559 32.7766201,-53.43744 63.0360701,-64.51988 9.52578,-3.4888 17.30421,-4.24068 51.712299,-4.99864 l 40.5,-0.89216 v -59.58932 -59.58932 l -40.5,-0.89216 c -34.408089,-0.75796 -42.186519,-1.50984 -51.712299,-4.99864 -30.10171,-11.02466 -52.6691,-34.12326 -63.0360701,-64.51988 -3.527331,-10.34236 -3.751625,-19.31024 -3.751625,-150 0,-130.689773 0.224294,-139.657643 3.751625,-150.000003 C 20.635331,40.654034 44.105871,17.179937 75.245531,6.5875435 c 10.33121,-3.514237 19.45117,-3.741733 149.999999,-3.741733 130.68976,0 139.65764,0.224294 150,3.751625 30.5559,10.4212985 53.43744,32.7766185 64.51988,63.0360715 3.4888,9.52578 4.24068,17.30421 4.99864,51.712303 l 0.89216,40.5 h 59.58932 59.58932 l 0.89216,-40.5 c 0.75796,-34.408093 1.50984,-42.186523 4.99864,-51.712303 11.08244,-30.259453 33.96398,-52.614773 64.51988,-63.0360715 10.34236,-3.527331 19.31024,-3.751625 150,-3.751625 130.68979,0 139.65769,0.224294 149.99999,3.751625 31.1918,10.6381675 54.6659,34.1087065 65.25828,65.2483715 3.5142,10.3312 3.7417,19.45117 3.7417,150.000003 0,130.68976 -0.2243,139.65764 -3.7516,150 -10.42128,30.5559 -32.77658,53.43744 -63.03608,64.51988 -9.5258,3.4888 -17.3042,4.24068 -51.71229,4.99864 l -40.5,0.89216 v 59.58932 59.58932 l 40.5,0.89216 c 34.40809,0.75796 42.18649,1.50984 51.71229,4.99864 30.2595,11.08244 52.6148,33.96398 63.03608,64.51988 3.5273,10.34236 3.7516,19.31024 3.7516,150 0,130.54884 -0.2275,139.6688 -3.7417,150 -10.59238,31.13962 -34.06648,54.61022 -65.25828,65.24842 -10.3453,3.52827 -19.3323,3.75157 -150.99999,3.75157 -138.37256,0 -140.13034,-0.05 -151.2123,-4.29327 -29.88622,-11.4437 -51.57836,-33.171 -62.26244,-62.36322 -3.54272,-9.67978 -4.28246,-17.28352 -5.04378,-51.8435 l -0.89216,-40.5 h -59.58932 -59.58932 l -0.89216,40.5 c -0.75796,34.4081 -1.50984,42.18652 -4.99864,51.7123 -10.79718,29.48062 -32.29864,51.06702 -62.17638,62.42192 -11.17698,4.24767 -13.34004,4.31607 -147.3435,4.65857 -74.8,0.1912 -139.599999,-0.4081 -143.999999,-1.33167 z m 283.101619,-43.1724 c 13.30634,-6.15688 22.99622,-15.5517 29.3182,-28.42552 5.55906,-11.32018 5.5841,-11.55628 6.61602,-62.3632 0.5697,-28.05 1.80378,-52.60828 2.74236,-54.57398 4.5324,-9.49218 3.4037,-9.42602 160.82404,-9.42602 102.87246,0 149.73088,0.6728 154.15,2.21332 3.81726,1.3307 8.7911,5.76258 12.47278,11.11374 20.6196,29.96958 62.74068,35.01908 90.29642,10.82484 18.5334,-16.27254 24.23322,-47.43336 12.89838,-70.5151 -20.10966,-40.95042 -77.1625,-44.8005 -103.1948,-6.96386 -3.68168,5.35116 -8.65552,9.78304 -12.47278,11.11374 -4.42042,1.54096 -51.5114,2.21332 -155.01914,2.21332 h -148.67 l -6.53154,-5.83102 -6.53156,-5.83102 -1,-51.66898 c -0.91138,-47.08964 -1.37324,-52.47564 -5.21132,-60.7706 -6.15684,-13.30634 -15.55166,-22.99622 -28.42548,-29.3182 -11.01422,-5.4088 -12.51486,-5.60032 -48.8632,-6.236 l -37.5,-0.65584 v 50.16104 50.16104 l 7.90008,7.13724 c 10.33924,9.34088 21.28486,26.0144 26.49166,40.35488 5.70244,15.70558 6.1207,46.85634 0.83916,62.49746 -10.49412,31.078 -34.10112,54.68142 -65.2309,65.22102 -15.49282,5.2454 -46.7852,4.87762 -62.2123,-0.73118 -30.04056,-10.92178 -52.73724,-34.15198 -63.00872,-64.48984 -5.29247,-15.63184 -4.87922,-46.77518 0.82928,-62.49746 5.2068,-14.34048 16.15242,-31.014 26.49166,-40.35488 l 7.90008,-7.13724 v -50.16104 -50.16104 l -37.5,0.65584 c -36.348339,0.63568 -37.848969,0.8272 -48.863199,6.236 -12.87383,6.32198 -22.26864,16.01186 -28.42548,29.3182 -4.12188,8.90834 -4.22469,11.84112 -4.84123,138.10162 -0.43529,89.1406 0.0548,132.1654 1.58623,139.24442 4.37981,20.24616 18.60571,36.07936 38.70859,43.0821 9.60391,3.3454 19.673829,3.5673 142.335089,3.1368 129.49336,-0.4545 132.17284,-0.5433 141.10162,-4.6746 z m 559.99997,0 c 13.3064,-6.15688 22.9963,-15.5517 29.3182,-28.42552 l 5.5802,-11.3632 v -135 c 0,-133.04302 -0.061,-135.13194 -4.2113,-144.10162 -6.1568,-13.30634 -15.5517,-22.99622 -28.4255,-29.3182 -11.3428,-5.57016 -11.4559,-5.58198 -63.03217,-6.58018 l -51.66898,-1 -5.83102,-6.53156 -5.83102,-6.53154 v -148.67 c 0,-103.50774 0.67236,-150.59872 2.21332,-155.01914 1.3307,-3.81726 5.76258,-8.7911 11.11374,-12.47278 29.96958,-20.6196 35.01908,-62.74068 10.82484,-90.29642 -16.27254,-18.5334 -47.43336,-24.23323 -70.5151,-12.89839 -40.95042,20.10967 -44.8005,77.16251 -6.96386,103.19481 5.35116,3.68168 9.78304,8.65552 11.11374,12.47278 1.54096,4.42042 2.21332,51.5114 2.21332,155.01914 v 148.67 l -5.83182,6.53154 -5.8318,6.53156 -60.6682,1 c -59.52254,0.98112 -60.81234,1.08962 -68.30282,5.74632 -4.19904,2.61048 -10.04904,8.39192 -13,12.84764 l -5.36536,8.1013 -0.63298,46.65236 -0.633,46.65238 h 50.1382 50.1382 l 7.13724,-7.90008 c 9.34088,-10.33924 26.0144,-21.28486 40.35488,-26.49166 15.72228,-5.7085 46.86562,-6.12174 62.49746,-0.82928 31.14074,10.54332 54.79292,34.1993 65.21052,65.22102 5.05256,15.04566 5.05256,44.95434 0,60 -10.4176,31.02172 -34.06978,54.6777 -65.21052,65.22102 -15.63184,5.29246 -46.77518,4.87922 -62.49746,-0.82928 -14.34048,-5.2068 -31.014,-16.15242 -40.35488,-26.49166 l -7.13724,-7.90008 h -50.00522 -50.0052 v 33.637 c 0,37.4851 2.07476,48.34422 11.80244,61.77288 7.29716,10.07344 16.22256,16.507 29.15574,21.01584 9.22754,3.217 20.74564,3.4633 142.04182,3.0376 129.49339,-0.4545 132.17289,-0.5433 141.10159,-4.6746 z M 252.03131,835.03821 c 40.52674,-19.82788 44.16398,-77.08228 6.54128,-102.96738 -5.35116,-3.68168 -9.78304,-8.65552 -11.11374,-12.47278 -1.54052,-4.41912 -2.21332,-51.27754 -2.21332,-154.15 0,-157.42034 -0.0662,-156.29164 9.42602,-160.82404 1.9657,-0.93858 26.52398,-2.17266 54.57398,-2.74236 46.3602,-0.9416 51.82804,-1.41898 60.10162,-5.24716 13.30634,-6.15684 22.99622,-15.55166 29.3182,-28.42548 5.4088,-11.01422 5.60032,-12.51486 6.236,-48.8632 l 0.65584,-37.5 h -50.16104 -50.16104 l -7.13724,7.90008 c -9.34088,10.33924 -26.0144,21.28486 -40.35488,26.49166 -15.70558,5.70244 -46.85634,6.1207 -62.49746,0.83916 -31.08866,-10.49772 -54.73786,-34.1579 -65.20062,-65.2309 -5.06921,-15.0549 -5.06921,-44.9451 0,-60 10.46276,-31.073 34.11196,-54.73319 65.20062,-65.23091 15.64112,-5.28154 46.79188,-4.86327 62.49746,0.83917 13.96256,5.06959 29.77682,15.35112 40.40844,26.27128 l 7.9059,8.12046 h 49.74992 49.74994 l -0.65584,-37.5 C 404.32311,91.281317 403.74741,85.769267 400.03421,77.744197 393.87737,64.437837 384.48255,54.747976 371.60873,48.42598 l -11.3632,-5.58017 h -135 -134.999999 l -11.3632,5.58017 c -12.87383,6.321996 -22.26864,16.011857 -28.42548,29.318217 -4.15027,8.96967 -4.21132,11.0586 -4.21132,144.101613 v 135 l 5.58017,11.3632 c 6.322,12.87382 16.01186,22.26864 29.31822,28.42548 8.27358,3.82818 13.74142,4.30556 60.101609,5.24716 28.05,0.5697 52.60829,1.80378 54.57397,2.74236 9.49219,4.5324 9.42603,3.4037 9.42603,160.82404 0,102.87246 -0.6728,149.73088 -2.21332,154.15 -1.3307,3.81726 -5.76258,8.7911 -11.11375,12.47278 -39.79725,27.38124 -32.82899,87.92256 12.17571,105.78452 14.05776,5.5794 33.0574,4.46286 47.93714,-2.81714 z m 313.23796,-157.6924 c 0.016,-31.28892 0.83788,-47.55774 2.76612,-54.79962 5.93356,-22.28484 20.63888,-41.21514 39.51132,-50.86332 16.61434,-8.49378 26.27024,-9.78828 73.19882,-9.81332 l 44.5,-0.0237 v -59.79466 -59.79466 l -40.5,-0.89216 c -34.4081,-0.75796 -42.18652,-1.50984 -51.7123,-4.99864 -29.40212,-10.76844 -51.53792,-32.87366 -62.26244,-62.17638 -3.54272,-9.67978 -4.28246,-17.28352 -5.04378,-51.8435 l -0.89216,-40.5 h -59.58932 -59.58932 l -0.89216,40.5 c -0.76132,34.55998 -1.50106,42.16372 -5.04378,51.8435 -10.78582,29.47024 -32.69226,51.34638 -62.26244,62.17638 -9.52578,3.4888 -17.3042,4.24068 -51.7123,4.99864 l -40.5,0.89216 v 59.58932 59.58932 l 40.5,0.89216 c 34.4081,0.75796 42.18652,1.50984 51.7123,4.99864 29.57018,10.83 51.47662,32.70614 62.26244,62.17638 3.54272,9.67978 4.28246,17.28352 5.04378,51.8435 l 0.89216,40.5 h 59.79466 59.79466 l 0.0238,-44.5 z m 159.97626,-325.5052 v -50.00522 l -7.90008,-7.13724 c -10.33924,-9.34088 -21.28486,-26.0144 -26.49166,-40.35488 -5.70244,-15.70558 -6.1207,-46.85634 -0.83916,-62.49746 7.80846,-23.12454 23.44218,-42.97009 43.2309,-54.87766 17.53464,-10.55122 30.41938,-14.02683 52,-14.02683 21.58062,0 34.46536,3.47561 52,14.02683 19.78872,11.90757 35.42244,31.75312 43.2309,54.87766 5.28154,15.64112 4.86328,46.79188 -0.83916,62.49746 -5.2068,14.34048 -16.15242,31.014 -26.49166,40.35488 l -7.90008,7.13724 v 50.16104 50.16104 l 37.5,-0.65584 c 33.06449,-0.57824 38.57659,-1.15394 46.60159,-4.86714 13.3064,-6.15684 22.9963,-15.55166 29.3182,-28.42548 l 5.5802,-11.3632 v -135 c 0,-133.043013 -0.061,-135.131943 -4.2113,-144.101613 -6.1568,-13.30636 -15.5517,-22.996221 -28.4255,-29.318217 l -11.3632,-5.58017 h -134.99999 -135 l -11.3632,5.58017 c -12.87382,6.321996 -22.26864,16.011857 -28.42548,29.318217 -4.12188,8.90833 -4.2247,11.8411 -4.84124,138.101613 -0.43528,89.1406 0.0548,132.1654 1.58624,139.24442 4.3831,20.26142 18.63958,36.1181 38.70858,43.05344 8.32942,2.87844 17.03032,3.58422 44.8351,3.63684 l 34.5,0.0653 z m -482.6903,-72.97508 c 12.90734,-3.83308 24.74554,-12.4724 32.46528,-23.69266 3.68168,-5.35116 8.65552,-9.78304 12.47278,-11.11374 4.39938,-1.53362 48.02184,-2.21332 142.05068,-2.21332 h 135.70156 v -20 -20 H 429.54397 c -94.02884,0 -137.6513,-0.67969 -142.05068,-2.21332 -3.81726,-1.3307 -8.7911,-5.76258 -12.47278,-11.11375 -26.41722,-38.39609 -85.50314,-33.44526 -104.15813,8.72744 -20.77486,46.96501 22.49751,96.22879 71.69285,81.61935 z"
       id="path511" />
  </g>
</svg>
